<svg id="b0646527-020c-4170-8725-937a53c43dd9" data-name="Layer 1" xmlns="http://www.w3.org/2000/svg" xmlns:xlink="http://www.w3.org/1999/xlink" viewBox="0 0 783 448">
  <defs>
    <linearGradient id="fca7ad4c-6014-44d1-8b03-aac5d74e3f29" x1="45.08" y1="224" x2="737.92" y2="224" gradientUnits="userSpaceOnUse">
      <stop offset="0" stop-color="#ec7d46"/>
      <stop offset="0.26" stop-color="#e2312d"/>
      <stop offset="0.35" stop-color="#bd394e"/>
      <stop offset="0.46" stop-color="#924276"/>
      <stop offset="0.56" stop-color="#77488e"/>
      <stop offset="0.61" stop-color="#6d4a97"/>
      <stop offset="0.67" stop-color="#64509c"/>
      <stop offset="0.77" stop-color="#4c62aa"/>
      <stop offset="0.9" stop-color="#247ec1"/>
      <stop offset="1" stop-color="#0097d5"/>
    </linearGradient>
    <linearGradient id="e191c7d5-8589-4ea8-aa10-a71d5bbdd61d" x1="44.08" x2="738.92" xlink:href="#fca7ad4c-6014-44d1-8b03-aac5d74e3f29"/>
  </defs>
  <g>
    <path d="M515.8,302.8a195.7,195.7,0,0,0,23.5,21.6A159.6,159.6,0,0,1,527,313.2c-4.1-4.1-8.1-8.2-12-12.7l-2.9-3.4-2.9-3.5-5.7-7.1c-3.8-4.8-7.6-9.9-11.3-14.9-7.5-10.3-14.8-21-22.1-32s-14.8-22.3-22.4-33.6-15.3-23-23.5-34.6-16.9-23.3-26.2-34.8a414.7,414.7,0,0,0-30.5-33.9l-4.2-4.1-4.4-4c-2.9-2.7-5.9-5.4-9-7.9-6.2-5.3-12.8-10.2-19.7-15-3.5-2.3-7-4.7-10.7-6.8s-7.4-4.3-11.2-6.4l-5.9-2.9-5.9-2.8-6.1-2.6-6.3-2.3L281,46.8l-3.2-1-6.4-2c-4.4-1.1-8.7-2.3-13.1-3.1a172.6,172.6,0,0,0-26.7-3.4l-6.6-.2H214.7l-3.5.3c-2.4.1-4.7.3-7.1.6a156.1,156.1,0,0,0-27.7,5.5,162.9,162.9,0,0,0-49.7,24.7,183.8,183.8,0,0,0-37.6,37.1,210.2,210.2,0,0,0-25.4,43.5,228.7,228.7,0,0,0-18.6,94.7,218.2,218.2,0,0,0,2.1,32.7c.4,3.1,1,6.2,1.5,9.2s1.2,6,2,8.8,1.3,5.5,2.1,7.9.7,2.5,1.1,3.6.7,2.2,1,3.2a175.9,175.9,0,0,0,26,46.2,172.4,172.4,0,0,0,40.9,37.7,164,164,0,0,0,25.5,13.7,153.8,153.8,0,0,0,27.9,9,164.9,164.9,0,0,0,28.5,3.7,181.4,181.4,0,0,0,27.7-1c4.5-.6,8.9-1.2,13.2-2l6.5-1.3,3.2-.7,3.1-.8a253.2,253.2,0,0,0,24.2-7.6c7.7-2.9,15.1-6.2,22.3-9.6s14-7.1,20.6-11,13-7.8,19.1-11.9,12.1-8.4,17.8-12.7l8.4-6.5c2.7-2.2,5.4-4.3,8.1-6.6l7.8-6.6,7.5-6.6c4.9-4.5,9.5-9,13.8-13.3q3.3-3.3,6.3-6.6l5.8-6.3c7.4-8.2,13.6-15.9,18.7-22.3s9-11.6,11.6-15.2l3.1-4.1,1-1.5c4-5,7.9-10.2,9.7-13s1.4-3-3,1.5c-8.6,9.4-24,25.6-38.2,38.5-7.1,6.5-13.8,12.2-18.8,16.2s-8.4,6.1-8.8,5.6,9.6-8.5,19.1-17c-.6-.8,5.5-8.3,13-16.6s16.1-17.6,20.6-22,19.6-20.6,34.4-36.9,29.3-32.9,33.4-37.7l2.2-2.6c-1.9,2.4-5.1,5.8-9,9.9s-8.7,8.9-14.1,14.1c-10.8,10.4-24.1,22.1-37.5,32.7-6.6,5.4-13.2,10.5-19.5,15.2s-12.1,8.8-17.2,12.4-7.8,5.2-8.9,5.6-.7-.2.3-1.3,6.7-6.4,6.3-6.9c-19.9,14.7-31.2,20.2-51.8,33.1-.1-.1-1.1.4-2.9,1.4l-7.8,4.1c-6.5,3.4-15.5,8-25.6,12.7l-7.8,3.5-8,3.4c-5.4,2.2-10.9,4.3-16.2,6.2a282.6,282.6,0,0,1-28.8,8.5l-2.2.6c-1.4.4-3.8,1.1-7,1.8s-7.6,1.5-12.9,2.3l-4.2.4-4.6.4-5,.2h-5.3c-9.7-.4-9.6.3-9.7,1.3a11.5,11.5,0,0,1,.1-1.9c-4.8.4-11.7-.8-18-3a36.1,36.1,0,0,1-4.6-1.7l-4.3-1.8-3.8-1.8-3.3-1.5a11.1,11.1,0,0,0,.9-1.9,50.2,50.2,0,0,1-10.9-6.4,72.9,72.9,0,0,1-9.6-8.9c-1.5-1.6-2.9-3.3-4.3-4.9l-1.9-2.6-1.9-2.7c-2.5-3.5-4.7-7.1-7-10.8l2-1.2a81,81,0,0,1-4.5-10.8c-.9-3-1.2-5.2-.7-5.4l2.2-.8c-.6-4.2-2.2-10.2-3.1-15.5s-1-9.6.2-9.8l-2.4.3a110.7,110.7,0,0,1,.1-12.9,119.7,119.7,0,0,1,1.4-12.2c.7-3.9,1.5-7.7,2.5-11.4s2.1-7.2,3.4-10.6a109.4,109.4,0,0,1,20-33.9,93.3,93.3,0,0,1,8.5-8.2l2.3-1.8,2.2-1.7,4.5-3.1a64,64,0,0,1,28.2-9.8,98.5,98.5,0,0,1,10.9,0,117.5,117.5,0,0,1,11.9,1.7,16.3,16.3,0,0,1,3,.7l2.9.7,3,.9,3,1.1a113,113,0,0,1,24.7,12.9c4.3,2.9,8.6,6.1,13,9.7l1.6,1.3,1.6,1.4,3.3,2.9c2.2,2,4.4,3.8,6.6,6,8.8,8.2,17.5,17.6,26.2,27.4s17.1,20.3,25.7,30.9,17,18,11.7,6.6l22.6,30.2a107.4,107.4,0,0,0,8.5,10.2,56.9,56.9,0,0,0,4.8,4.1c2.8,2,5.4,4,13.7,14.3,17.3,20.2,35.8,40.7,58.5,59.5l4.2,3.5,4.5,3.5c2.9,2.3,6.1,4.4,9.1,6.6l4.8,3.2,4.9,3.1,5,3.1,5.2,2.8,2.6,1.5,2.7,1.3,5.4,2.6c3.8,1.6,7.4,3.3,11.3,4.6,2,.7,3.8,1.5,5.8,2.1l5.9,1.8c2,.7,4.1,1.1,6.1,1.6l6.1,1.4,6.1,1.2,6.2.8,3.1.3,3.1.2,6.3.4h6.2c1,0,2.1.1,3,0l2.9-.2,5.8-.3a15.3,15.3,0,0,0,3-.3l2.9-.3,5.9-.7,6.1-1.1,3-.5,3-.7,6.1-1.6,6.2-1.9,3.1-1.1,3-1.2,6.1-2.6,6.1-3.1a104.7,104.7,0,0,0,22.2-16.1,109.8,109.8,0,0,0,16.7-21.1c1.1-1.9,2.2-3.7,3.2-5.6s1.9-3.8,2.8-5.7,1.7-3.8,2.4-5.7,1.6-3.8,2.2-5.7l1.8-5.7,1.6-5.6c.5-1.8.9-3.7,1.3-5.5s.8-3.7,1.1-5.6l1-5.4c.2-1.8.5-3.6.7-5.4l.4-2.7.2-2.7.5-5.3c.5-7,.8-14,.8-20.8.1-13.6-.7-26.8-1.8-39.8-2.2-25.9-5.9-50.9-8.7-75.6-.8-6.1-1.4-12.3-2-18.4s-1.1-12.2-1.4-18.3a204.6,204.6,0,0,1,.6-35.9,90.3,90.3,0,0,1,3.4-17.2,63.9,63.9,0,0,1,6.9-15.9,53.8,53.8,0,0,1,11.8-13,23.1,23.1,0,0,1,1.9-1.4l1.9-1.3,1.9-1.2,2-1.1,2.1-1.1,1.1-.6,1-.4,4.4-1.9-4.3,1.9-1.1.4-1,.5-2,1.1-2,1-1.9,1.3c-1.2.8-2.5,1.5-3.6,2.4s-2.2,1.7-3.3,2.7l-3,2.9a59,59,0,0,0-5,6.2,16.3,16.3,0,0,0-1.1,1.7l-1,1.7a22.7,22.7,0,0,0-1.9,3.4c-.6,1.1-1.1,2.3-1.7,3.5s-.9,2.4-1.4,3.6a82.7,82.7,0,0,0-3.9,14.8c-.3,1.3-.5,2.6-.7,3.8s-.4,2.6-.5,3.9-.6,5.2-.7,7.8c-.4,5.3-.5,10.7-.5,16.1.1,11,.9,22.5,2.2,34.7-.5,0-1.5,0-.3,12.4.8,9.3,1.9,18.8,2.9,28.5l3,29.3c1.8,19.7,3.2,39.6,2.8,58.9a238.4,238.4,0,0,1-2.2,28.4,149.4,149.4,0,0,1-5.9,26.6A111.9,111.9,0,0,1,689.5,351l-3.1,4.9-3.3,4.4-1.7,2.1-1.7,1.9-3.4,3.6-4.6,4.3-2.6,2-2.8,2.1c-1.9,1.4-4,2.7-6.3,4.1a84.5,84.5,0,0,1-7.5,4.1l-2.1,1.1-2.2.9-4.7,2-5.3,1.9-2.7,1-3,.8a141.2,141.2,0,0,1-28.1,5.2c1.8-.2,3.6-.3,5.4-.6l5.5-.8,2.8-.5,2.8-.6,5.5-1.3,5.5-1.7,2.8-.9,2.7-1.1,5.5-2.2,5.4-2.7-1.4-2.7-5.2,2.5c-1.8.8-3.7,1.4-5.5,2.1l-2.8,1-2.8.9-2.8.8-2.8.7-5.8,1.2-1.4.4-1.4.2-2.9.4-2.9.4-1.5.2h-1.4l-5.8.5a57.2,57.2,0,0,1-5.8.2h-5.8c-4.1-.2-8.1-.2-12.2-.7-2-.2-4-.4-6-.8l-6.1-1-6-1.4c-2-.4-3.9-1.1-5.9-1.6a141.2,141.2,0,0,1-22.4-8.9,180.8,180.8,0,0,1-20.1-12A228.1,228.1,0,0,1,479,339.8l2.5-2.6q-9.5-9.1-18-18.9c-2.6-6.3,1.2-4.2,9.2,2.9L488,335c6.2,5.4,13.4,11.5,21.6,17.5a166.5,166.5,0,0,0,27.7,16.6,129.2,129.2,0,0,0,32.2,10.5,116.9,116.9,0,0,0,16.5,1.7h7.9c2.6-.1,5.2,0,7.7-.3,10.1-.8,19.5-2.5,27.3-5.3l-1.2-3.9a106,106,0,0,1-24.9,4.5v-2.1a101.9,101.9,0,0,0,26.7-5.1,72.1,72.1,0,0,0,22.9-12.7,75.6,75.6,0,0,0,16.4-19.7,108.4,108.4,0,0,0,9.7-23.7,179.1,179.1,0,0,0,5.3-25.2c1.2-8.6,1.9-17.3,2.3-26.1.8-17.7.5-35.7-.1-54.6.2,6.3.5,15.7.6,25.2s-.1,18.8-.3,25.1c-.8,0-1.4,0-2.3,12.4,1-12.4,1.3-25.8,1.2-39.5s-.4-27.9-.8-42c-.9-28.3-1.9-56.8.5-82.1q.8-9.5-.9,0c-1.1,6.2-2.8,18.9-3.4,38s-.1,34.8.1,50.5.5,31.4,0,50.1h-1.4c.4-12.4.6-28,.5-43.8s-.3-31.5-.4-44.1c-.2-6.4-.7,0-1.1,6.3s-.9,12.7-1.1,6.4c.1-12.7.3-25.4.7-38.2-2.6,38.4.5,89-3,125.6-.4,3.1-.9,6.1-1.3,8.9s-1.1,5.4-1.6,7.6c-1.1,4.4-2.1,7.3-2.9,7.2a153,153,0,0,1-4.2,20.6,101.9,101.9,0,0,1-6.5,17.7,67.3,67.3,0,0,1-8.8,13.7l-1.2,1.4c-.5.4-.8.9-1.3,1.3l-2.6,2.4-2.7,2.1-.6.6-.7.4-1.4.9a44.7,44.7,0,0,1-11.7,5.1l-1.4.5-1.6.3-3,.6-3.2.4a29.6,29.6,0,0,1-3.1.3,88.4,88.4,0,0,1-24.3-2.4,39.2,39.2,0,0,0-5.1-1.2c-2.1-.5-4.7-1-7.6-1.8a102.2,102.2,0,0,1-20-7.6,136.5,136.5,0,0,1-22.4-14.7A197.7,197.7,0,0,1,515.8,302.8Z" fill="url(#fca7ad4c-6014-44d1-8b03-aac5d74e3f29)"/>
    <path d="M737.9,28.6l-4.4,1.9-1,.4-1.1.6-2.1,1.1-2,1.1-1.9,1.2-1.9,1.3a23.1,23.1,0,0,0-1.9,1.4,53.8,53.8,0,0,0-11.8,13,63.9,63.9,0,0,0-6.9,15.9,90.3,90.3,0,0,0-3.4,17.2,204.6,204.6,0,0,0-.6,35.9c.3,6.1.8,12.2,1.4,18.3s1.2,12.3,2,18.4c2.8,24.7,6.5,49.7,8.7,75.6,1.1,13,1.9,26.2,1.8,39.8,0,6.8-.3,13.8-.8,20.8l-.5,5.3-.2,2.7-.4,2.7c-.2,1.8-.5,3.6-.7,5.4l-1,5.4c-.3,1.9-.7,3.7-1.1,5.6s-.8,3.7-1.3,5.5l-1.6,5.6-1.8,5.7c-.6,1.9-1.4,3.8-2.2,5.7s-1.5,3.8-2.4,5.7-1.8,3.8-2.8,5.7-2.1,3.7-3.2,5.6a109.8,109.8,0,0,1-16.7,21.1,104.7,104.7,0,0,1-22.2,16.1l-6.1,3.1-6.1,2.6-3,1.2-3.1,1.1-6.2,1.9-6.1,1.6-3,.7-3,.5-6.1,1.1-5.9.7-2.9.3a15.3,15.3,0,0,1-3,.3l-5.8.3-2.9.2h-9.2l-6.3-.4-3.1-.2L569,411l-6.2-.8-6.1-1.2-6.1-1.4c-2-.5-4.1-.9-6.1-1.6l-5.9-1.8c-2-.6-3.8-1.4-5.8-2.1-3.9-1.3-7.5-3-11.3-4.6l-5.4-2.6-2.7-1.3-2.6-1.5-5.2-2.8-5-3.1-4.9-3.1-4.8-3.2c-3-2.2-6.2-4.3-9.1-6.6l-4.5-3.5-4.2-3.5c-21.5-17.8-39.2-37.2-55.7-56.3l1.7-1.9c7.4-8.2,13.6-15.9,18.7-22.3s9-11.6,11.6-15.2l3.1-4.1,1-1.5c4-5,7.9-10.2,9.7-13,.7-1.2,1.1-2,.9-2s-1.5,1.1-3.9,3.5c-8.6,9.4-24,25.6-38.2,38.5-3.9,3.7-7.8,7-11.3,10l-1.4-1.6,4.2-3.6c-.6-.8,5.5-8.3,13-16.6s16.1-17.6,20.6-22,11.1-11.6,20.7-21.9l2.3,3.3c7.3,11,14.6,21.7,22.1,32,3.7,5,7.5,10.1,11.3,14.9l5.7,7.1,2.9,3.5,2.9,3.4c3.9,4.5,7.9,8.6,12,12.7s6,5.8,9.1,8.5l-.5-.4a197.7,197.7,0,0,1-19.8-18.5,195.7,195.7,0,0,0,23.5,21.6l-3.2-2.7A132.1,132.1,0,0,0,558,336a102.2,102.2,0,0,0,20,7.6c2.9.8,5.5,1.3,7.6,1.8a39.2,39.2,0,0,1,5.1,1.2,92,92,0,0,0,20.5,2.5h3.9a27.7,27.7,0,0,0,3-.3l3.2-.4,3-.6,1.6-.3,1.4-.5a44.7,44.7,0,0,0,11.7-5.1l1.4-.9.7-.4.6-.6,2.7-2.1,2.6-2.4c.5-.4.8-.9,1.3-1.3l1.2-1.4a67.3,67.3,0,0,0,8.8-13.7,101.9,101.9,0,0,0,6.5-17.7,153,153,0,0,0,4.2-20.6h0c.9,0,1.8-2.9,2.9-7.2.5-2.2,1.1-4.8,1.6-7.6s.9-5.8,1.3-8.9c3.5-36.6.4-87.2,3-125.6-.4,12.8-.6,25.5-.7,38.2,0,1.9.1,2.6.2,2.6s.6-4.5.9-9,.6-9,.9-9a12.7,12.7,0,0,1,.2,2.7c.1,12.6.4,28.4.4,44.1s-.1,31.4-.5,43.8h1.4c.5-18.7.3-34.4,0-50.1s-.5-31.5-.1-50.5,2.3-31.8,3.4-38c.5-3.2.9-4.7,1.1-4.7a33.2,33.2,0,0,1-.2,4.7c-2.4,25.3-1.4,53.8-.5,82.1.4,14.1.8,28.3.8,42s-.2,24.9-1,36.4c0,.9-.1,2-.2,3.1.1-1,.2-2.1.2-3.1.7-8.8,1.3-9.3,1.9-9.3h.2c-.1,1.4-.2,2.9-.2,4.3-.4,8.8-1.1,17.5-2.3,26.1a179.1,179.1,0,0,1-5.3,25.2,108.4,108.4,0,0,1-9.7,23.7,75.6,75.6,0,0,1-16.4,19.7,72.1,72.1,0,0,1-22.9,12.7,101.9,101.9,0,0,1-26.7,5.1v2.1a106,106,0,0,0,24.9-4.5l1.2,3.9c-7.8,2.8-17.2,4.5-27.3,5.3-2.5.3-5.1.2-7.7.3H586a116.9,116.9,0,0,1-16.5-1.7,129.2,129.2,0,0,1-32.2-10.5,166.5,166.5,0,0,1-27.7-16.6c-8.2-6-15.4-12.1-21.6-17.5l-15.3-13.8c-4.8-4.2-8-6.7-9.4-6.7s-.9,1.2.2,3.8q8.5,9.8,18,18.9l-2.5,2.6a228.1,228.1,0,0,0,32.6,27.8,180.8,180.8,0,0,0,20.1,12,141.2,141.2,0,0,0,22.4,8.9c2,.5,3.9,1.2,5.9,1.6l6,1.4,6.1,1c2,.4,4,.6,6,.8,4.1.5,8.1.5,12.2.7h5.8a57.2,57.2,0,0,0,5.8-.2l5.8-.5h1.4l1.5-.2,2.9-.4,2.9-.4,1.4-.2,1.4-.4,5.8-1.2,2.8-.7,2.8-.8,2.8-.9,2.8-1c1.8-.7,3.7-1.3,5.5-2.1l5.2-2.5,1.4,2.7-5.4,2.7-5.5,2.2-2.7,1.1-2.8.9-5.5,1.7-5.5,1.3-2.8.6-2.8.5-4.5.7-5.2.6h0l4.2-.5h1a139.8,139.8,0,0,0,21.7-4.5l3-.8,2.7-1,5.3-1.9,4.7-2,2.2-.9,2.1-1.1a84.5,84.5,0,0,0,7.5-4.1c2.3-1.4,4.4-2.7,6.3-4.1l2.8-2.1,2.6-2,4.6-4.3,3.4-3.6,1.7-1.9,1.7-2.1,3.3-4.4,3.1-4.9a111.9,111.9,0,0,0,10.3-22.9,149.4,149.4,0,0,0,5.9-26.6,238.4,238.4,0,0,0,2.2-28.4c.4-19.3-1-39.2-2.8-58.9l-3-29.3c-1-9.7-2.1-19.2-2.9-28.5-1.2-12.4-.2-12.4.3-12.4-1.3-12.2-2.1-23.7-2.2-34.7,0-5.4.1-10.8.5-16.1.1-2.6.4-5.2.7-7.8s.3-2.6.5-3.9.4-2.5.7-3.8a82.7,82.7,0,0,1,3.9-14.8c.5-1.2,1-2.4,1.4-3.6s1.1-2.4,1.7-3.5a22.7,22.7,0,0,1,1.9-3.4l1-1.7a16.3,16.3,0,0,1,1.1-1.7,59,59,0,0,1,5-6.2l3-2.9c1.1-1,2.2-1.8,3.3-2.7s2.4-1.6,3.6-2.4l1.9-1.3,2-1,2-1.1,1-.5,1.1-.4,4.3-1.9M222,37h3l6.6.2a172.6,172.6,0,0,1,26.7,3.4c4.4.8,8.7,2,13.1,3.1l6.4,2,3.2,1,3.1,1.1,6.3,2.3,6.1,2.6,5.9,2.8,5.9,2.9c3.8,2.1,7.6,4.1,11.2,6.4s7.2,4.5,10.7,6.8c6.9,4.8,13.5,9.7,19.7,15,3.1,2.5,6.1,5.2,9,7.9l4.4,4,4.2,4.1A414.7,414.7,0,0,1,398,136.6c9.3,11.5,18,23.2,26.2,34.8s15.9,23.2,23.5,34.6c5.7,8.5,11.3,16.9,16.8,25.3l-8,6.4c-6.6,5.4-13.2,10.5-19.5,15.2s-12.1,8.8-17.2,12.4-7.8,5.2-8.9,5.6l-.6.2c-.4,0,.1-.6.9-1.5s6.7-6.4,6.3-6.9c-10.8,7.9-19.1,13.2-27.6,18.4l-2.3-2.9L365,248c1.8,3.9,1.9,5.5.9,5.5s-7.7-5.8-12.6-12.1c-8.6-10.6-17-21.1-25.7-30.9s-17.4-19.2-26.2-27.4c-2.2-2.2-4.4-4-6.6-6l-3.3-2.9-1.6-1.4-1.6-1.3c-4.4-3.6-8.7-6.8-13-9.7a113,113,0,0,0-24.7-12.9l-3-1.1-3-.9-2.9-.7a16.3,16.3,0,0,0-3-.7,117.5,117.5,0,0,0-11.9-1.7l-6.1-.2-4.8.2a64,64,0,0,0-28.2,9.8l-4.5,3.1-2.2,1.7-2.3,1.8a93.3,93.3,0,0,0-8.5,8.2,109.4,109.4,0,0,0-20,33.9c-1.3,3.4-2.3,6.9-3.4,10.6s-1.8,7.5-2.5,11.4a119.7,119.7,0,0,0-1.4,12.2,110.7,110.7,0,0,0-.1,12.9l2.4-.3c-1.2.2-1.1,4.6-.2,9.8s2.5,11.3,3.1,15.5l-2.2.8c-.5.2-.2,2.4.7,5.4a81,81,0,0,0,4.5,10.8l-2,1.2c2.3,3.7,4.5,7.3,7,10.8l1.9,2.7,1.9,2.6c1.4,1.6,2.8,3.3,4.3,4.9a72.9,72.9,0,0,0,9.6,8.9,50.2,50.2,0,0,0,10.9,6.4,11.1,11.1,0,0,1-.9,1.9l3.3,1.5,3.8,1.8,4.3,1.8a36.1,36.1,0,0,0,4.6,1.7,51.2,51.2,0,0,0,15.8,3.1h2.2a11.5,11.5,0,0,0-.1,1.9c.1-.8,0-1.4,4.6-1.4h10.4l5-.2,4.6-.4,4.2-.4c5.3-.8,9.6-1.6,12.9-2.3s5.6-1.4,7-1.8l2.2-.6a282.6,282.6,0,0,0,28.8-8.5c5.3-1.9,10.8-4,16.2-6.2l8-3.4,7.8-3.5c10.1-4.7,19.1-9.3,25.6-12.7l7.8-4.1,2.8-1.4h.1c9.4-5.9,16.9-10.3,24.2-14.7a74.1,74.1,0,0,0,6.2,7.3,56.9,56.9,0,0,0,4.8,4.1c2.1,1.4,4.1,3,8.4,7.9-8,7.1-15.2,13.1-14.9,13.4h.2c.8,0,4-2.1,8.6-5.7l7.5-6.2,3.9,4.8,2.8,3.2-4.1,4.4q-3,3.3-6.3,6.6c-4.3,4.3-8.9,8.8-13.8,13.3l-7.5,6.6-7.8,6.6c-2.7,2.3-5.4,4.4-8.1,6.6l-8.4,6.5c-5.7,4.3-11.6,8.5-17.8,12.7s-12.5,8.1-19.1,11.9-13.5,7.6-20.6,11-14.6,6.7-22.3,9.6a253.2,253.2,0,0,1-24.2,7.6l-3.1.8-3.2.7-6.5,1.3c-4.3.8-8.7,1.4-13.2,2a173.6,173.6,0,0,1-20.5,1.2l-7.2-.2a164.9,164.9,0,0,1-28.5-3.7,153.8,153.8,0,0,1-27.9-9,164,164,0,0,1-25.5-13.7,172.4,172.4,0,0,1-40.9-37.7,175.9,175.9,0,0,1-26-46.2c-.3-1-.7-2.1-1-3.2s-.7-2.3-1.1-3.6-1.4-5.1-2.1-7.9-1.3-5.8-2-8.8-1.1-6.1-1.5-9.2a218.2,218.2,0,0,1-2.1-32.7,228.7,228.7,0,0,1,18.6-94.7,210.2,210.2,0,0,1,25.4-43.5,183.8,183.8,0,0,1,37.6-37.1,162.9,162.9,0,0,1,49.7-24.7A156.1,156.1,0,0,1,204.1,38c2.4-.3,4.7-.5,7.1-.6l3.5-.3H222M519.8,177.8h0m0,0-2.7,3.2-1.6,2,4.3-5.2m-4.3,5.2-.6.6c-4.1,4.8-18.6,21.4-33.4,37.7l-13.7,15-3.3-5c10.6-8.8,20.8-18,29.5-26.3,5.4-5.2,10.2-10,14.1-14.1s5.5-5.8,7.4-7.9m170.4,24.1c.4,10.1.6,20,.6,29.8v-4.6c-.1-9.5-.4-18.9-.6-25.2m.6,29.8c0,7.8-.1,15.3-.3,20.5h0c.2-6.8.3-13.6.3-20.5M145.2,249.1h0m0,0h0M737.9,27.6h-.4L734,29.2l-.8.3-1.1.5-.7.4H731l-1.3.7-.7.4-.5.3-1.5.7c0,.1,0,.1-.1.1l-1.4.9-.4.3-1.2.8a19.5,19.5,0,0,0-2.5,1.8l-1.2.9a17.3,17.3,0,0,0-2.1,1.7l-1.5,1.4L715,42h0l-.3.3a55.9,55.9,0,0,0-4.8,6.1l-.4.6-.8,1h0l-1,1.8-.6,1a11.9,11.9,0,0,0-1.3,2.5l-.7,1.3-1,2.1h0l-.3.6-1.1,3a82.4,82.4,0,0,0-4,15c-.3,1.1-.4,2.1-.6,3.1v.8a6.8,6.8,0,0,1-.2,1.4l-.3,2.5c-.1.6-.1,1.2-.2,1.8s-.4,4-.5,6.1c-.5,5.4-.5,11.2-.5,16.1.1,10,.8,20.8,2.1,34.2h-.1c-.4.5-1.2,1.4-.1,13,.7,8,1.5,15.9,2.4,24.3l.5,4.2c1,9.3,2,19.3,3,29.3,1.5,16.3,3.2,37.7,2.8,58.8a248.9,248.9,0,0,1-2.1,28.3,154.2,154.2,0,0,1-6,26.4,106.6,106.6,0,0,1-10.2,22.7l-3.1,4.9c-1,1.4-2.1,2.9-3.2,4.2h0l-.5.7-1.1,1.3-.8.9-1,1-3.3,3.6-4.6,4.2a18.2,18.2,0,0,1-2.5,2l-1.2.9-1.6,1.2c-1.5,1.1-3.2,2.2-5,3.3l-1.2.7c-1.9,1.3-4,2.3-6.2,3.5l-1.2.6-2.1,1.1-.7.3c0-.2-.1-.3-.1-.4l-1.4-2.7a.9.9,0,0,0-.9-.6h-.4l-3.6,1.7-1.7.8-3.8,1.5-1.5.6-1,.3-1.7.7-2.8.8-1.2.3-1.7.5-.5.2-2.2.5-5.8,1.3-1.4.3-1.4.2-1.4.2-1.5.2h-.9l-2,.3-1.4.2h-1.4l-5.8.5-4.4.2h-9.3c-3.3-.1-6.6-.2-9.8-.6h-.5a37.3,37.3,0,0,1-5.6-.7l-1.9-.3-4.1-.7-5.9-1.3-3.9-1.1-2-.6a139.9,139.9,0,0,1-22.3-8.8,166.1,166.1,0,0,1-19.9-11.9,220.1,220.1,0,0,1-31.8-27l1.9-1.9a1.4,1.4,0,0,0,.2-.7,1.1,1.1,0,0,0-.3-.7c-6-5.8-12-12.1-17.8-18.8a6,6,0,0,1-.7-2.1c.8.3,2.9,1.5,8.3,6.4l15.3,13.8c5.6,4.8,13,11.2,21.8,17.5A166.2,166.2,0,0,0,536.9,370a129.2,129.2,0,0,0,32.4,10.6,127.8,127.8,0,0,0,16.6,1.7h10.4l5.4-.3a112.8,112.8,0,0,0,27.5-5.3,1,1,0,0,0,.6-1.3l-.7-2.3-.5-1.6-.5-.6h-.8a98.5,98.5,0,0,1-23.5,4.3h0a101.6,101.6,0,0,0,26-5.1,71.4,71.4,0,0,0,23.1-12.9,72.8,72.8,0,0,0,16.6-19.9,110.6,110.6,0,0,0,9.9-23.9,182.6,182.6,0,0,0,5.3-25.4c1.1-7.9,1.8-16.5,2.3-26.2,0-1.4.1-2.8.2-4.3.2-5.2.3-12.7.3-20.5h0c0-8.6-.2-18.1-.6-29.9a.9.9,0,0,0-1-.9h-.1c-.2-5.9-.4-11.8-.5-17.9l-.2-3.9c-.8-26.5-1.6-53.9.7-78,.4-4.9.3-5.1-.1-5.5a1.1,1.1,0,0,0-.7-.3h-.1c-.9,0-1.1.4-2,5.5s-2.8,18.3-3.4,38.1c-.1,3.1-.1,6.2-.2,9.2,0-.1-.1-.1-.2-.1a.8.8,0,0,0-.8.4c.1-7.4.3-14.8.5-22.2a1,1,0,0,0-.9-1h-.1a1.1,1.1,0,0,0-1,.9c-1.2,18-1.2,38.9-1.2,59.2,0,23.1,0,46.9-1.8,66.4-.3,2.4-.7,4.7-1,7l-.3,1.8c-.5,2.5-.9,4.9-1.5,7.6-1.3,4.9-2,6.1-2.2,6.4a1.1,1.1,0,0,0-.8.9,161.6,161.6,0,0,1-4.2,20.5,104.1,104.1,0,0,1-6.4,17.5,61.9,61.9,0,0,1-8.7,13.4l-.9,1.1-.3.3-.3.4-.8.8h-.1l-2.5,2.4-1.2.9-1.5,1.2-.2.2-.4.2-.7.5-1.4.9a44.5,44.5,0,0,1-11.3,5l-1.1.3h-.4l-.9.2h-.6l-3,.6-1.9.3H617l-1.9.2h-3.9a91.4,91.4,0,0,1-20.2-2.5l-5.2-1.2-2.7-.6-4.8-1.2a99.4,99.4,0,0,1-19.9-7.5,136.8,136.8,0,0,1-21.7-14.2c-2.6-2.3-5.4-4.9-9-8.4s-7.9-8-11.9-12.7l-2.5-2.8-.4-.6L510,293l-1.9-2.3-3.8-4.8c-4.2-5.3-8.2-10.7-11.3-14.9-7.3-10-14.3-20.4-22.1-31.9l-1.8-2.7L482.3,222c13.7-15.1,27.2-30.7,32.3-36.5l1.1-1.2v-.2l.4-.5a20.2,20.2,0,0,0,1.6-1.9l2.7-3.2a.9.9,0,0,0,.3-.7,1,1,0,0,0-1-1h0l-.6.2H519l-4.3,5.1c-1.8,2.1-4.4,4.8-7.3,7.9-4.8,4.9-9.5,9.7-14.1,14.1-8.6,8.2-18.5,17-28.6,25.5l-5.8-8.8c-3.4-5.1-6.8-10.4-10.3-15.6-7-10.4-15.1-22.6-23.6-34.6s-17.7-24.3-26.2-34.8a401.3,401.3,0,0,0-30.6-34l-3.6-3.5-.6-.6-1.5-1.3-2.9-2.8L358,92.4c-2.4-2.2-4.9-4.4-7.5-6.5-5.6-4.8-12.1-9.7-19.7-15l-1.3-.9c-3-2-6.2-4.1-9.5-6s-6.8-4-10.2-5.8l-1-.6-4.4-2.2-1.5-.7h-.1c-1.9-.9-3.9-1.9-5.9-2.7l-6.1-2.6-5.1-1.9-1.2-.4-3.2-1.2-3.2-1-1.6-.5-4.8-1.5-3-.7c-3.3-.9-6.8-1.8-10.2-2.4a177.5,177.5,0,0,0-26.8-3.4l-6.7-.2H214.6l-2.4.2h-2.3a58.7,58.7,0,0,0-5.9.5,165.9,165.9,0,0,0-27.9,5.5,168.4,168.4,0,0,0-50,24.9,187.8,187.8,0,0,0-37.8,37.3,211.3,211.3,0,0,0-25.5,43.7,216.7,216.7,0,0,0-14.5,46.8,225.7,225.7,0,0,0-4.2,48.4,215,215,0,0,0,2.1,32.8c.5,3.2,1,6.4,1.5,9.2a20.5,20.5,0,0,1,.5,2.4c.5,2.2.9,4.3,1.5,6.4s1.4,5.5,2.1,8l.7,2.4.4,1.2a15.5,15.5,0,0,0,.8,2.3l.3.9a172.1,172.1,0,0,0,26.1,46.5,174.2,174.2,0,0,0,41.1,37.9,165.8,165.8,0,0,0,25.7,13.9,159,159,0,0,0,28.1,9,163.4,163.4,0,0,0,28.7,3.7l7.2.2a176.6,176.6,0,0,0,20.6-1.2c5.2-.7,9.4-1.3,13.3-2,1.9-.3,3.8-.8,5.6-1.2l.9-.2,3.2-.7,3.2-.8a227.6,227.6,0,0,0,24.2-7.6c7.3-2.7,14.7-5.9,22.4-9.6s13.9-7.1,20.7-11,12.6-7.6,19.2-12,12.7-8.8,17.8-12.7c2.5-1.9,5.2-3.9,8.4-6.5l2.3-1.8,5.8-4.8,7.8-6.6,5.7-5,1.9-1.7c4.9-4.4,9.5-8.9,13.9-13.3l6.2-6.6,3.4-3.6c14.9,17.3,33,37.3,55,55.6l4.3,3.5,3.1,2.4,1.4,1.1,6.8,5,2.4,1.6,3.3,2.3,1.5,1c1.5.9,3.1,2.1,4.9,3.1l5,3,3.9,2.2,1.3.7,2.6,1.4,2.8,1.4,1.2.6,4.2,2,2.4,1.1c2.9,1.2,5.9,2.5,9,3.6l1.8.7,4,1.4,5.9,1.8,4.2,1.1,1.9.5h.3l5.9,1.3,6.1,1.1,5,.7,1.3.2h.9l2.2.2,3.2.2h1.6l4.6.3h9.4l2.9-.2,5.8-.3,3-.3,2.9-.3,1.8-.2,4.2-.5,6.1-1.1,3-.5,2.1-.5,1-.3,6.1-1.5,4.7-1.5,1.5-.5,3.1-1,2.2-.9.9-.4,1.4-.5c1.5-.7,3.2-1.3,4.8-2.1l6-3.1a104.6,104.6,0,0,0,22.5-16.3,110,110,0,0,0,16.9-21.3l3.2-5.6c.8-1.5,1.5-3,2.1-4.4l.7-1.4a39,39,0,0,0,2-4.7c.2-.3.3-.7.5-1l.2-.7a52.7,52.7,0,0,0,1.9-5.1l.4-1.2c.5-1.4,1-3,1.5-4.5l1.5-5.6c.4-1.4.7-2.8,1-4.1s.3-1,.4-1.5l.3-1.3c.3-1.4.6-2.9.8-4.3l1-5.5c.1-1.2.3-2.5.5-3.7a9.9,9.9,0,0,1,.2-1.7l.3-2.7.3-2.7.5-5.3c.6-7.9.8-14.7.8-20.9.1-15-.9-29.1-1.8-39.8-1.6-17.9-3.8-35.4-5.9-52.4-1-7.6-1.9-15.6-2.9-23.3-.6-5.4-1.3-11.9-1.9-18.4s-1.1-12.4-1.4-18.2a210,210,0,0,1,.6-35.8,100.1,100.1,0,0,1,3.3-17,60.3,60.3,0,0,1,6.9-15.6,47.5,47.5,0,0,1,11.6-12.8l.6-.6L724,37l1.9-1.2,2-1.3,1.2-.7.7-.4,2.1-1,1-.6,1-.4,4.4-1.9a.9.9,0,0,0,.5-1.3,1,1,0,0,0-.9-.6Zm0,2ZM143.7,248.3a111.2,111.2,0,0,1,.2-11.7,106,106,0,0,1,1.4-12.1,93.3,93.3,0,0,1,2.5-11.4c.8-2.9,2-6.8,3.4-10.5A106.4,106.4,0,0,1,171,169.1a79.6,79.6,0,0,1,8.4-8.1l2.2-1.8.8-.6,1.4-1.1,4.5-3.1a62.4,62.4,0,0,1,18.2-8,58.9,58.9,0,0,1,9.5-1.6l4.7-.2,6,.2,2,.2c3.4.4,6.6.7,9.8,1.4h.1a7.2,7.2,0,0,1,1.9.4l1,.2,1,.3,1.8.5,3,.9,2.9,1a118,118,0,0,1,24.6,12.8,152.7,152.7,0,0,1,12.8,9.7l1.7,1.3,1.6,1.4,3.3,2.8,2.2,2,4.3,4c7.6,7.1,15.6,15.5,26.1,27.3,8.2,9.3,16.4,19.3,24.3,29.1l1.5,1.8c3.3,4.3,10.3,12.5,13.3,12.5a1.7,1.7,0,0,0,1.3-.7,1,1,0,0,0,.3-.8l4.9,6.6c4.7,6.3,9.5,12.8,14.4,19.2l1.6,2-6.8,4.1-16.3,9.9a22.6,22.6,0,0,0-3,1.5l-1.2.6-6.5,3.5c-5.8,3-14.9,7.7-25.7,12.7-1.5.8-3.1,1.5-4.8,2.2l-2.9,1.3-2.9,1.2-5.1,2.2c-5.6,2.3-11.3,4.4-16.1,6.2a297.2,297.2,0,0,1-28.8,8.5h0l-2.1.6-7,1.7c-3.8.9-8.1,1.6-12.8,2.3l-3.4.3h-.8l-2.1.2-2.5.2h-1l-3.9.2H222.3l-3.6.2c0-.2-.1-.3-.2-.5l-.7-.2h-2.2a54,54,0,0,1-15.5-3l-2.9-1.1-1.7-.6-2.4-1-1.8-.8-2.4-1.2-1.4-.6-2.3-1.1.4-1a1.1,1.1,0,0,0,0-.8,1.2,1.2,0,0,0-.5-.5,47.5,47.5,0,0,1-10.7-6.3,74.4,74.4,0,0,1-9.5-8.7c-1.1-1.2-2.2-2.5-3.2-3.8l-1-1.2-1.9-2.5-1.1-1.5-.8-1.2c-2.1-3-4.1-6.2-6.4-9.9l1.1-.6a1,1,0,0,0,.4-1.4,59.5,59.5,0,0,1-4.4-10.6c-.8-2.5-1-3.8-.9-4.3l1.8-.7a1,1,0,0,0,.6-1.1c-.3-2.1-.9-4.7-1.5-7.4s-1.2-5.5-1.6-8.1c-1-5.8-.7-8.1-.4-8.6a1.2,1.2,0,0,0,.6-1,1,1,0,0,0-1-1h-1.5ZM515.5,184ZM410.3,272.1l.9-.2a64.7,64.7,0,0,0,9.2-5.8l2.8-2c4.3-3.1,9.3-6.6,14.4-10.4s12.6-9.6,19.6-15.2l7.1-5.7c.7,1.1,1.5,2.2,2.2,3.4l-15.4,16.4-4.7,4.9c-4.3,4.2-12.8,13.3-20.6,22-10.4,11.5-12.9,15.3-13.3,16.8l-3.1,2.7a46.3,46.3,0,0,0-7.9-7.4,26.4,26.4,0,0,1-4.6-3.9,82.2,82.2,0,0,1-5.5-6.3c6.2-3.8,12.1-7.6,18.9-12.3-.8.9-1.3,1.6-1,2.3a1.2,1.2,0,0,0,1,.7Zm1.8,30c3.5-3,7.1-6.1,10.6-9.3,13.6-12.4,27.8-27.4,36.2-36.4-1.7,2.3-3.8,5.1-6.2,8l-1,1.5-1.8,2.4-1.3,1.7c-2.4,3.3-6.3,8.5-11.6,15.2s-11.4,14.2-18.7,22.3l-.9,1c-.7-.8-1.3-1.6-2-2.3l-3.3-4.1Zm-4.8,1.5,1.9-1.7h.1l-2,1.7Z" fill="url(#e191c7d5-8589-4ea8-aa10-a71d5bbdd61d)"/>
  </g>
</svg>
