<svg id="e6d24f45-848e-44cb-bb0f-3fee080b4df2" data-name="Layer 1" xmlns="http://www.w3.org/2000/svg" viewBox="0 0 479.3 152">
  <defs>
    <style>
      .b5ef7bac-9030-4f2b-a574-2992a072686d {
        fill: #e8c328;
      }
    </style>
  </defs>
  <g>
    <path d="M30.4,151.2c-9.5,0-16.4-3-20.8-8.8S3,127.9,3,116.2V96.6H20.2v18.5a86,86,0,0,0,.5,10.5,15.6,15.6,0,0,0,2.5,7.7c1.3,1.9,3.6,2.9,6.7,2.9s5.4-1,6.7-2.9,2.1-4.5,2.5-7.8.4-7.3.4-11.8V1.2H57.2V113.1c0,12.6-2.2,22.1-6.7,28.5S39.4,151.2,30.4,151.2Z"/>
    <polygon class="b5ef7bac-9030-4f2b-a574-2992a072686d" points="186.8 1.2 186.8 151.2 66.8 151.2 66.8 1.2 84.4 1.2 84.4 136.6 169.2 136.6 169.2 1.2 186.8 1.2"/>
    <path d="M93.3,129.5,116,1.2h21.2L162,129.5H145.4l-4.2-28.6H114l-3.9,28.6Zm22.6-42.9h23L127.1,22.8h-.3Z"/>
    <path d="M203.8,151.2V1.2h27.1c7.7,0,13.6,1.1,17.8,3.4a18.6,18.6,0,0,1,8.9,10.8c1.7,4.9,2.6,11.4,2.6,19.5v3.2c0,8.4-.8,15.2-2.3,20.5a18.1,18.1,0,0,1-9,11.3,16,16,0,0,1,8.3,7.5,39.5,39.5,0,0,1,4.3,12.7,98.8,98.8,0,0,1,1.2,15.9v3.1c-.1,9.8-1.1,17.8-2.9,24s-4.9,10.7-9.2,13.7-10.1,4.4-17.5,4.4Zm17.7-87.4h9.9a18.4,18.4,0,0,0,5.8-.8,6.2,6.2,0,0,0,3.5-3.3,22.1,22.1,0,0,0,1.6-7.3c.3-3.3.5-7.6.5-13.1V35.2a48.7,48.7,0,0,0-1.3-12.7c-.9-2.8-2.2-4.7-4.1-5.6a16.5,16.5,0,0,0-7.3-1.3h-8.6Zm0,73.1h10.8c3.3,0,5.9-.8,7.7-2.4s3.1-4.6,3.9-8.7a106.9,106.9,0,0,0,1.1-17.2v-5.2c0-9.2-.8-15.9-2.2-20s-4.7-6-9.6-6H221.5Z"/>
    <path d="M263.1,151.2l22.8-150h21.2l24.8,150H315.3L311,122.5H283.8l-3.9,28.7Zm22.7-43h23L297,28.9h-.3Z"/>
    <polygon points="339.2 151.2 339.2 1.2 352.5 1.2 387.2 103.3 385.4 59.9 385.4 1.2 401 1.2 401 151.2 388.1 151.2 354.4 48.2 355.4 86 355.4 151.2 339.2 151.2"/>
    <polygon points="434.5 151.2 434.5 88.2 408.4 1.2 425.9 1.2 443.3 62.1 443.6 62.1 458.7 1.2 476.3 1.2 452.1 88.2 452.1 151.2 434.5 151.2"/>
  </g>
</svg>
