<svg id="a4e16319-27d7-42dd-b6e1-727695a9e527" data-name="Layer 1" xmlns="http://www.w3.org/2000/svg" viewBox="0 0 572 250">
  <g>
    <path d="M43.7,211.8c-11,0-19-3.3-24.1-10.1s-7.7-16.8-7.7-30.3V148.7h20v21.4c0,4.4.2,8.5.5,12.1a19.5,19.5,0,0,0,2.9,8.9c1.6,2.3,4.2,3.4,7.8,3.4s6.2-1.1,7.8-3.3a18.5,18.5,0,0,0,2.8-9.1,134.6,134.6,0,0,0,.6-13.6V38.2H74.7V167.7c0,14.6-2.6,25.6-7.7,33S54.1,211.8,43.7,211.8Z" fill="#2f66ff"/>
    <polygon points="224.8 38.2 224.8 211.8 85.8 211.8 85.8 38.2 106.3 38.2 106.3 195 204.4 195 204.4 38.2 224.8 38.2" fill="red"/>
    <path d="M116.5,186.8,142.8,38.2h24.6l28.7,148.6H176.9L172,153.6H140.5l-4.6,33.2Zm26.3-49.7h26.6L155.7,63.2h-.3Z" fill="#2f66ff"/>
    <path d="M244.5,211.8V38.2h31.4c8.9,0,15.7,1.3,20.6,3.9a21.6,21.6,0,0,1,10.3,12.5c1.9,5.8,3,13.3,3,22.6V81c0,9.7-.9,17.5-2.7,23.6a20.9,20.9,0,0,1-10.4,13.2,18.8,18.8,0,0,1,9.7,8.6,46.2,46.2,0,0,1,4.9,14.7,118.5,118.5,0,0,1,1.4,18.4v3.7c-.1,11.3-1.3,20.6-3.4,27.7s-5.7,12.5-10.6,15.9-11.7,5-20.3,5Zm20.4-101.1h11.6a20.9,20.9,0,0,0,6.7-.9,7.7,7.7,0,0,0,4-3.8,26.2,26.2,0,0,0,1.9-8.5c.3-3.8.5-8.8.5-15.1V77.5q0-9.7-1.5-14.7c-1-3.2-2.5-5.3-4.7-6.4a19.6,19.6,0,0,0-8.4-1.6H264.9Zm0,84.7h12.6c3.8,0,6.8-1,8.9-2.9s3.6-5.2,4.5-10a125.3,125.3,0,0,0,1.3-19.9v-6c0-10.7-.9-18.5-2.6-23.2s-5.4-7-11.1-7H264.9Z" fill="#2f66ff"/>
    <path d="M313.2,211.8,339.5,38.2h24.6l28.7,173.6H373.6l-5-33.1H337.2l-4.6,33.1Zm26.2-49.7h26.7L352.4,70.3h-.3Z" fill="#2f66ff"/>
    <polygon points="401.2 211.8 401.2 38.2 416.6 38.2 456.9 156.4 454.8 106.2 454.8 38.2 472.9 38.2 472.9 211.8 457.9 211.8 418.9 92.6 420.1 136.4 420.1 211.8 401.2 211.8" fill="#2f66ff"/>
    <polygon points="511.6 211.8 511.6 138.9 481.4 38.2 501.6 38.2 521.8 108.7 522.2 108.7 539.6 38.2 560.1 38.2 532 138.9 532 211.8 511.6 211.8" fill="#2f66ff"/>
  </g>
</svg>
