<svg id="be1f4bff-4e08-40de-999f-b5f8693442fa" data-name="Layer 1" xmlns="http://www.w3.org/2000/svg" viewBox="0 0 244 250">
  <g>
    <path d="M47.3,211.8c-11,0-19-3.3-24.1-10.1s-7.6-16.8-7.6-30.3V148.7H35.5v21.4c0,4.4.2,8.5.5,12.1a19.5,19.5,0,0,0,2.9,8.9c1.6,2.3,4.2,3.4,7.8,3.4s6.2-1.1,7.8-3.3a18.5,18.5,0,0,0,2.8-9.1,134.6,134.6,0,0,0,.6-13.6V38.2H78.3V167.7c0,14.6-2.6,25.6-7.7,33S57.7,211.8,47.3,211.8Z"/>
    <polygon points="228.4 38.2 228.4 211.8 89.4 211.8 89.4 38.2 109.9 38.2 109.9 195 208 195 208 38.2 228.4 38.2" fill="v.$secondary"/>
    <path d="M120.1,186.8,146.5,38.2H171l28.7,148.6H180.5l-4.9-33.2H144.1l-4.6,33.2Zm26.3-49.7H173L159.3,63.2H159Z"/>
  </g>
</svg>
