<svg id="e1cf69fb-4285-4ca9-92ea-6d0d3585dd82" data-name="Layer 1" xmlns="http://www.w3.org/2000/svg" viewBox="0 0 42.8 35">
  <defs>
    <style>
      .e2f2bbdc-9628-4d6d-914f-364ac78a0117 {
        fill: v.$secondary;
      }
    </style>
  </defs>
  <g>
    <path class="e2f2bbdc-9628-4d6d-914f-364ac78a0117" d="M7.6,33.5a5,5,0,0,1-4.4-1.9c-1-1.2-1.4-3.1-1.4-5.6V21.9H5.4v3.9c0,.8.1,1.6.1,2.2a3.8,3.8,0,0,0,.6,1.7,1.6,1.6,0,0,0,1.4.6c.7,0,1.2-.2,1.4-.6A3.8,3.8,0,0,0,9.5,28c0-.7.1-1.5.1-2.5V1.5h3.7V25.4c0,2.7-.4,4.7-1.4,6.1A5,5,0,0,1,7.6,33.5Z"/>
    <polygon class="e2f2bbdc-9628-4d6d-914f-364ac78a0117" points="41 1.5 41 33.5 15.4 33.5 15.4 1.5 19.1 1.5 19.1 30.4 37.2 30.4 37.2 1.5 41 1.5"/>
    <path class="e2f2bbdc-9628-4d6d-914f-364ac78a0117" d="M21,28.9,25.9,1.5h4.5l5.3,27.4H32.2l-1-6.1H25.4l-.8,6.1Zm4.9-9.2h4.9L28.2,6.1h0Z"/>
  </g>
</svg>
