<svg id="af06ee8a-e6ba-44b5-8ebc-d41fb6a2247d" data-name="Layer 1" xmlns="http://www.w3.org/2000/svg" xmlns:xlink="http://www.w3.org/1999/xlink" viewBox="0 0 242 239">
  <defs>
    <style>
      .b166f560-696d-431b-8bed-81c77ab1cc2e {
        fill: none;
      }

      .bbfb2d49-d9c1-4c26-9325-510892cbc5c6 {
        clip-path: url(#fc6e91dc-a198-477a-a4f2-d130a2c0e79c);
      }

      .bef93a44-6b43-4d42-96e7-cfefe46ad9df {
        fill: #e5d9d5;
      }

      .a764f247-ee77-4472-914e-56d5e85434bd {
        fill: #fff;
      }

      .af1fd4dc-bf89-4c2d-b47b-ad6b9fcc7c6e {
        fill: #e8c328;
      }
    </style>
    <clipPath id="fc6e91dc-a198-477a-a4f2-d130a2c0e79c">
      <circle class="b166f560-696d-431b-8bed-81c77ab1cc2e" cx="121" cy="119.5" r="119"/>
    </clipPath>
  </defs>
  <g class="bbfb2d49-d9c1-4c26-9325-510892cbc5c6">
    <rect class="bef93a44-6b43-4d42-96e7-cfefe46ad9df" x="-27.5" y="-28.5" width="298" height="298"/>
    <g>
      <path class="a764f247-ee77-4472-914e-56d5e85434bd" d="M88,157.8c-4.8,0-8.4-1.4-10.6-4.4S74,145.9,74,140V130h8.8v9.4c0,2,.1,3.7.2,5.4a8.6,8.6,0,0,0,1.3,3.9,4,4,0,0,0,3.5,1.5,3.8,3.8,0,0,0,3.4-1.5,8.2,8.2,0,0,0,1.3-4c.1-1.7.2-3.7.2-6V81.2h9v57.2c0,6.4-1.1,11.3-3.4,14.5S92.6,157.8,88,157.8Z"/>
      <polygon class="a764f247-ee77-4472-914e-56d5e85434bd" points="168 81.2 168 157.8 106.6 157.8 106.6 81.2 115.6 81.2 115.6 150.4 159 150.4 159 81.2 168 81.2"/>
      <path class="af1fd4dc-bf89-4c2d-b47b-ad6b9fcc7c6e" d="M120.2,146.8l11.6-65.6h10.8l12.7,65.6h-8.5l-2.1-14.7H130.8l-2.1,14.7Zm11.6-22h11.7l-6-32.6h-.2Z"/>
    </g>
  </g>
</svg>
