<svg id="a32a1237-8488-457c-99f1-5a117853e624" data-name="Layer 1" xmlns="http://www.w3.org/2000/svg" xmlns:xlink="http://www.w3.org/1999/xlink" viewBox="0 0 242 239">
  <defs>
    <style>
      .b5d55e62-c0ed-4311-bff3-644ffd88acda {
        fill: none;
      }

      .be892c4a-3fed-402c-8b57-412da6d1d330 {
        clip-path: url(#fd639acf-a220-481f-9c0a-35e4f8144851);
      }

      .b63c6c9e-6de6-482a-a711-d9c65bf9a1b4 {
        fill: #e5d9d5;
      }

      .aa6d514e-7e35-46dc-b2bc-32b1cc3b9ca5 {
        fill: #e8c328;
      }
    </style>
    <clipPath id="fd639acf-a220-481f-9c0a-35e4f8144851">
      <circle class="b5d55e62-c0ed-4311-bff3-644ffd88acda" cx="121" cy="119.5" r="119"/>
    </clipPath>
  </defs>
  <g class="be892c4a-3fed-402c-8b57-412da6d1d330">
    <rect class="b63c6c9e-6de6-482a-a711-d9c65bf9a1b4" x="-27.5" y="-28.5" width="298" height="298"/>
    <g>
      <path d="M88,157.8c-4.8,0-8.4-1.4-10.6-4.4S74,145.9,74,140V130h8.8v9.4c0,2,.1,3.7.2,5.4a8.6,8.6,0,0,0,1.3,3.9,4,4,0,0,0,3.5,1.5,3.8,3.8,0,0,0,3.4-1.5,8.2,8.2,0,0,0,1.3-4c.1-1.7.2-3.7.2-6V81.2h9v57.2c0,6.4-1.1,11.3-3.4,14.5S92.6,157.8,88,157.8Z"/>
      <polygon points="168 81.2 168 157.8 106.6 157.8 106.6 81.2 115.6 81.2 115.6 150.4 159 150.4 159 81.2 168 81.2"/>
      <path class="aa6d514e-7e35-46dc-b2bc-32b1cc3b9ca5" d="M120.2,146.8l11.6-65.6h10.8l12.7,65.6h-8.5l-2.1-14.7H130.8l-2.1,14.7Zm11.6-22h11.7l-6-32.6h-.2Z"/>
    </g>
  </g>
</svg>
