<svg id="e66e82b7-a824-41fd-8823-6a5b163c11dd" data-name="Layer 1" xmlns="http://www.w3.org/2000/svg" xmlns:xlink="http://www.w3.org/1999/xlink" viewBox="0 0 242 239">
  <defs>
    <style>
      .a3b2e00d-315e-4df2-8b13-0b6d87d2dad6 {
        fill: none;
      }

      .b9873f84-68d5-4dc1-ba92-689806e13c30 {
        clip-path: url(#a7ac8e13-c3fc-4dd1-95d5-11114cd5360e);
      }

      .b39045dd-279e-49fd-8074-013ea1b10d2c {
        fill: #fff;
      }

      .a12fe307-f13a-4b1d-87df-850e4c99fce5 {
        fill: #e8c328;
      }
    </style>
    <clipPath id="a7ac8e13-c3fc-4dd1-95d5-11114cd5360e">
      <circle class="a3b2e00d-315e-4df2-8b13-0b6d87d2dad6" cx="121" cy="119.5" r="119"/>
    </clipPath>
  </defs>
  <g class="b9873f84-68d5-4dc1-ba92-689806e13c30">
    <rect x="-27.5" y="-28.5" width="298" height="298"/>
    <g>
      <path class="b39045dd-279e-49fd-8074-013ea1b10d2c" d="M88,157.8c-4.8,0-8.4-1.4-10.6-4.4S74,145.9,74,140V130h8.8v9.4c0,2,.1,3.7.2,5.4a8.6,8.6,0,0,0,1.3,3.9,4,4,0,0,0,3.5,1.5,3.8,3.8,0,0,0,3.4-1.5,8.2,8.2,0,0,0,1.3-4c.1-1.7.2-3.7.2-6V81.2h9v57.2c0,6.4-1.1,11.3-3.4,14.5S92.6,157.8,88,157.8Z"/>
      <polygon class="b39045dd-279e-49fd-8074-013ea1b10d2c" points="168 81.2 168 157.8 106.6 157.8 106.6 81.2 115.6 81.2 115.6 150.4 159 150.4 159 81.2 168 81.2"/>
      <path class="a12fe307-f13a-4b1d-87df-850e4c99fce5" d="M120.2,146.8l11.6-65.6h10.8l12.7,65.6h-8.5l-2.1-14.7H130.8l-2.1,14.7Zm11.6-22h11.7l-6-32.6h-.2Z"/>
    </g>
  </g>
</svg>
